<svg xmlns="http://www.w3.org/2000/svg" viewBox="0 0 32 32"><rect width="32" height="32" rx="8" fill="#fff"/><g transform="translate(1.6 1.6) scale(0.9)"><circle cx="5.6" cy="15" r="4.6" fill="#0a0a0a"/><circle cx="26.4" cy="15" r="4.6" fill="#0a0a0a"/><circle cx="16" cy="16" r="12" fill="#0a0a0a"/><path d="M16 12.1c1-.95 2.2-1.45 3.55-1.45 2.55 0 4.25 1.85 4.25 4.25 0 .95-.27 1.8-.72 2.5.5.6.8 1.37.8 2.22 0 3.05-3.3 5.35-7.88 5.35s-7.88-2.3-7.88-5.35c0-.85.3-1.62.8-2.22a4.6 4.6 0 0 1-.72-2.5c0-2.4 1.7-4.25 4.25-4.25 1.35 0 2.55.5 3.55 1.45Z" fill="#fff"/><circle cx="12.7" cy="15.1" r="1.25" fill="#0a0a0a"/><circle cx="19.3" cy="15.1" r="1.25" fill="#0a0a0a"/><path d="M13.6 20.4c1.4 1.05 3.4 1.05 4.8 0" stroke="#0a0a0a" stroke-width="1.3" stroke-linecap="round" fill="none"/></g></svg>
